HIERARCHY
ROOT Hips
{
	OFFSET -14.64140 90.27770 -84.91600
	CHANNELS 6 Xposition Yposition Zposition Zrotation Xrotation Yrotation
	JOINT Spine
	{
		OFFSET 0.00000 13.20850 -1.60436
		CHANNELS 3 Zrotation Xrotation Yrotation
		JOINT Spine1
		{
			OFFSET 0.00000 8.61716 0.00000
			CHANNELS 3 Zrotation Xrotation Yrotation
			JOINT Spine2
			{
				OFFSET 0.00000 8.61717 0.00000
				CHANNELS 3 Zrotation Xrotation Yrotation
				JOINT Spine3
				{
					OFFSET 0.00000 8.61717 0.00000
					CHANNELS 3 Zrotation Xrotation Yrotation
					JOINT Neck
					{
						OFFSET 0.00000 11.07920 1.10792
						CHANNELS 3 Zrotation Xrotation Yrotation
						JOINT Neck1
						{
							OFFSET 0.00000 7.08032 0.00000
							CHANNELS 3 Zrotation Xrotation Yrotation
							JOINT Head
							{
								OFFSET 0.00000 7.08031 0.00000
								CHANNELS 3 Zrotation Xrotation Yrotation
								End site
								{
									OFFSET 0.00000 0.00000 0.00000
								}
							}
						}
					}
					JOINT RightShoulder
					{
						OFFSET -0.01000 7.91373 5.19711
						CHANNELS 3 Zrotation Xrotation Yrotation
						JOINT RightArm
						{
							OFFSET -18.41580 0.00000 0.00000
							CHANNELS 3 Zrotation Xrotation Yrotation
							JOINT RightForeArm
							{
								OFFSET -29.11090 0.00000 0.00000
								CHANNELS 3 Zrotation Xrotation Yrotation
								JOINT RightHand
								{
									OFFSET -24.65040 0.00000 0.00000
									CHANNELS 3 Zrotation Xrotation Yrotation
									JOINT RightHandThumb1
									{
										OFFSET -5.35114 -0.85590 3.97906
										CHANNELS 3 Zrotation Xrotation Yrotation
										JOINT RightHandThumb2
										{
											OFFSET -4.52789 0.00000 0.00000
											CHANNELS 3 Zrotation Xrotation Yrotation
											JOINT RightHandThumb3
											{
												OFFSET -2.46976 0.00000 0.00000
												CHANNELS 3 Zrotation Xrotation Yrotation
												End site
												{
													OFFSET 0.00000 0.00000 0.00000
												}
											}
										}
									}
									JOINT RightHandIndex1
									{
										OFFSET -14.26970 0.00000 2.88139
										CHANNELS 3 Zrotation Xrotation Yrotation
										JOINT RightHandIndex2
										{
											OFFSET -5.48836 0.00000 0.00000
											CHANNELS 3 Zrotation Xrotation Yrotation
											JOINT RightHandIndex3
											{
												OFFSET -3.01859 0.00000 0.00000
												CHANNELS 3 Zrotation Xrotation Yrotation
												End site
												{
													OFFSET 0.00000 0.00000 0.00000
												}
											}
										}
									}
									JOINT RightHandMiddle1
									{
										OFFSET -14.26970 0.00000 -0.09147
										CHANNELS 3 Zrotation Xrotation Yrotation
										JOINT RightHandMiddle2
										{
											OFFSET -6.17441 0.00000 0.00000
											CHANNELS 3 Zrotation Xrotation Yrotation
											JOINT RightHandMiddle3
											{
												OFFSET -3.56743 0.00000 0.00000
												CHANNELS 3 Zrotation Xrotation Yrotation
												End site
												{
													OFFSET 0.00000 0.00000 0.00000
												}
											}
										}
									}
									JOINT RightHandRing1
									{
										OFFSET -12.69180 0.00000 -3.06433
										CHANNELS 3 Zrotation Xrotation Yrotation
										JOINT RightHandRing2
										{
											OFFSET -5.62556 0.00000 0.00000
											CHANNELS 3 Zrotation Xrotation Yrotation
											JOINT RightHandRing3
											{
												OFFSET -3.56744 0.00000 0.00000
												CHANNELS 3 Zrotation Xrotation Yrotation
												End site
												{
													OFFSET 0.00000 0.00000 0.00000
												}
											}
										}
									}
									JOINT RightHandPinky1
									{
										OFFSET -11.11390 0.00000 -6.03719
										CHANNELS 3 Zrotation Xrotation Yrotation
										JOINT RightHandPinky2
										{
											OFFSET -4.52789 0.00000 0.00000
											CHANNELS 3 Zrotation Xrotation Yrotation
											JOINT RightHandPinky3
											{
												OFFSET -2.46976 0.00000 0.00000
												CHANNELS 3 Zrotation Xrotation Yrotation
												End site
												{
													OFFSET 0.00000 0.00000 0.00000
												}
											}
										}
									}
								}
							}
						}
					}
					JOINT LeftShoulder
					{
						OFFSET 0.01000 7.91373 5.19711
						CHANNELS 3 Zrotation Xrotation Yrotation
						JOINT LeftArm
						{
							OFFSET 18.41580 0.00000 0.00000
							CHANNELS 3 Zrotation Xrotation Yrotation
							JOINT LeftForeArm
							{
								OFFSET 29.11090 0.00000 0.00000
								CHANNELS 3 Zrotation Xrotation Yrotation
								JOINT LeftHand
								{
									OFFSET 24.65040 0.00000 0.00000
									CHANNELS 3 Zrotation Xrotation Yrotation
									JOINT LeftHandThumb1
									{
										OFFSET 5.35114 -0.85590 3.97906
										CHANNELS 3 Zrotation Xrotation Yrotation
										JOINT LeftHandThumb2
										{
											OFFSET 4.52789 0.00000 0.00000
											CHANNELS 3 Zrotation Xrotation Yrotation
											JOINT LeftHandThumb3
											{
												OFFSET 2.46977 0.00000 0.00000
												CHANNELS 3 Zrotation Xrotation Yrotation
												End site
												{
													OFFSET 0.00000 0.00000 0.00000
												}
											}
										}
									}
									JOINT LeftHandIndex1
									{
										OFFSET 14.26970 0.00000 2.88139
										CHANNELS 3 Zrotation Xrotation Yrotation
										JOINT LeftHandIndex2
										{
											OFFSET 5.48836 0.00000 0.00000
											CHANNELS 3 Zrotation Xrotation Yrotation
											JOINT LeftHandIndex3
											{
												OFFSET 3.01859 0.00000 0.00000
												CHANNELS 3 Zrotation Xrotation Yrotation
												End site
												{
													OFFSET 0.00000 0.00000 0.00000
												}
											}
										}
									}
									JOINT LeftHandMiddle1
									{
										OFFSET 14.26970 0.00000 -0.09147
										CHANNELS 3 Zrotation Xrotation Yrotation
										JOINT LeftHandMiddle2
										{
											OFFSET 6.17440 0.00000 0.00000
											CHANNELS 3 Zrotation Xrotation Yrotation
											JOINT LeftHandMiddle3
											{
												OFFSET 3.56744 0.00000 0.00000
												CHANNELS 3 Zrotation Xrotation Yrotation
												End site
												{
													OFFSET 0.00000 0.00000 0.00000
												}
											}
										}
									}
									JOINT LeftHandRing1
									{
										OFFSET 12.69180 0.00000 -3.06433
										CHANNELS 3 Zrotation Xrotation Yrotation
										JOINT LeftHandRing2
										{
											OFFSET 5.62556 0.00000 0.00000
											CHANNELS 3 Zrotation Xrotation Yrotation
											JOINT LeftHandRing3
											{
												OFFSET 3.56744 0.00000 0.00000
												CHANNELS 3 Zrotation Xrotation Yrotation
												End site
												{
													OFFSET 0.00000 0.00000 0.00000
												}
											}
										}
									}
									JOINT LeftHandPinky1
									{
										OFFSET 11.11390 0.00000 -6.03719
										CHANNELS 3 Zrotation Xrotation Yrotation
										JOINT LeftHandPinky2
										{
											OFFSET 4.52789 0.00000 0.00000
											CHANNELS 3 Zrotation Xrotation Yrotation
											JOINT LeftHandPinky3
											{
												OFFSET 2.46976 0.00000 0.00000
												CHANNELS 3 Zrotation Xrotation Yrotation
												End site
												{
													OFFSET 0.00000 0.00000 0.00000
												}
											}
										}
									}
								}
							}
						}
					}
					JOINT pCube4
					{
						OFFSET 0.00000 10.91090 1.10792
						CHANNELS 3 Zrotation Xrotation Yrotation
						End site
						{
							OFFSET 0.00000 0.00000 0.00000
						}
					}
				}
			}
		}
	}
	JOINT RightUpLeg
	{
		OFFSET -9.98441 0.00000 0.00000
		CHANNELS 3 Zrotation Xrotation Yrotation
		JOINT RightLeg
		{
			OFFSET 0.00000 -42.11790 0.00000
			CHANNELS 3 Zrotation Xrotation Yrotation
			JOINT RightFoot
			{
				OFFSET 0.00000 -45.00020 -0.00001
				CHANNELS 3 Zrotation Xrotation Yrotation
				JOINT RightForeFoot
				{
					OFFSET 0.00000 -3.74820 0.00000
					CHANNELS 3 Zrotation Xrotation Yrotation
					JOINT RightToeBase
					{
						OFFSET 0.00000 0.06325 14.43120
						CHANNELS 3 Zrotation Xrotation Yrotation
						End site
						{
							OFFSET 0.00000 0.00000 0.00000
						}
					}
				}
			}
		}
	}
	JOINT LeftUpLeg
	{
		OFFSET 9.98441 0.00000 0.00000
		CHANNELS 3 Zrotation Xrotation Yrotation
		JOINT LeftLeg
		{
			OFFSET 0.00000 -42.11800 0.00000
			CHANNELS 3 Zrotation Xrotation Yrotation
			JOINT LeftFoot
			{
				OFFSET 0.00000 -45.00070 0.00000
				CHANNELS 3 Zrotation Xrotation Yrotation
				JOINT LeftForeFoot
				{
					OFFSET 0.00000 -3.74824 0.00000
					CHANNELS 3 Zrotation Xrotation Yrotation
					JOINT LeftToeBase
					{
						OFFSET 0.00000 0.06325 14.43110
						CHANNELS 3 Zrotation Xrotation Yrotation
						End site
						{
							OFFSET 0.00000 0.00000 0.00000
						}
					}
				}
			}
		}
	}
}
MOTION
Frames: 4
Frame Time: 0.050000
0.021453307543319842 0.04243334871003208 -0.041616634391932965 0.0003442037820085494 0.02600385069000917 -0.01612159689184431 -2.227001608935216 3.9290743621867006 -1.029139119843833 -0.919162542809533 3.7822194400147677 0.3948815884320836 -0.9314955136169797 -0.37528972979327013 -1.0925563036805295 0.6732563541565826 0.4421903838006416 -0.7989256369110054 -0.21769582277393656 11.055205960294733 -1.033013041066888 -0.06844041303184444 -0.9859626773095338 -3.6108098347350124 0.32901469140570794 -15.858716618136079 -0.2347689354804182 0.328808726289499 0.501104440909733 -14.960599094023582 66.09014842104276 1.274635945148245 9.02385068734592 30.698990044180164 -1.8606791560960383 93.75777602791587 13.60357253070299 -0.2605682707823381 -4.39594676657445 4.57331912027654 -0.08119498661803645 -1.566173098440988 0.0021352612108774534 -0.03289995096235333 -56.27321968837522 0.00039046016836324264 0.011130440205641271 -56.23779316820752 -38.78808806425028 0.026032451325443958 0.02386380900228662 0.0023639830104663405 -0.031805055823821184 -0.0050271085662966074 0.02874121899140653 0.006334307781142379 0.011512718055625966 -36.700143853258524 0.0024464334808939475 -0.02474975057272216 -0.0337050143657835 0.023485370508154396 -0.04852373078121294 0.007969672248638938 0.023913216026896184 0.004924750620769617 -19.780065346877013 -0.04256865211006503 -0.025807376543377367 -0.017480881572667802 -0.036869367158224 -0.03669093415410487 0.017978147346501185 -0.03447874780922933 -0.014387885087958945 24.050345825631815 0.004838805881987997 0.008546408238702188 28.831594554449925 0.015453515406353044 -0.020327982448635436 28.872159023038307 -0.01586220582643212 -0.02043377903830051 1.1127018368276382 0.6799823918649353 12.79268130330839 -61.766581693608245 26.773725748222496 -17.137514240429674 -6.312461010592383 6.837758703378485 -75.95350269738901 -13.171583107368294 3.864304530526303 -1.7912622144722814 -0.4960604647175617 0.10141112339996437 -8.152461767544127 0.013727084849588574 -0.04960540312709142 44.546889025221205 -0.012167518726589178 0.03727495831257319 44.53945025987622 12.4266841298443 0.03497888072872938 -0.017556559793577748 0.01874029329499959 -0.038892648267263255 -0.04730291614779633 0.04774631418539227 0.042869089443044794 0.03750305792799128 11.103986090186918 0.046853442765108846 -0.004043842424998791 0.04354046408435008 -0.009754410465274239 -0.0034373136033404765 0.04099292581017089 -0.013674831933260592 0.016055217613281405 4.785084200179692 -0.0013069573652056312 0.0312782363202368 -0.009961615911018738 -0.013847221839475538 -0.02673355599818955 0.015634320119319322 0.04177164193464916 -0.022873278034925473 -5.6413608379203195 0.009470385772649881 -0.00776522380010723 -6.760692713297449 -0.03316904967988905 -0.0033951580719689513 -6.734463856878724 0.0014155522847377965 0.007665302537606022 0.017104987777099737 0.04090030734370501 0.015812283126131053 8.022628482634355 3.502529448909287 -19.228788295399337 -0.020065526376408162 10.427765654373033 0.05073598452329768 -5.620184412801105 -15.616211857200563 3.1694695425074406 -0.016796451827145564 -0.03623318332020464 -0.044487013869804894 -0.01578819058607623 4.700918871778952 0.007869402790068591 12.438945123035676 -8.258149383183433 6.905421402989343 0.012015464433619644 46.38705115331476 -0.03290573348943577 -4.324674030964245 -14.739669941204468 -3.800028307386988 -0.015872433094511716 -0.04018067603594032 -0.00730098537055543 -0.015695578532348438 -10.77606865043876 0.017085635512274558 
-0.007192692127850852 -0.024331413303042455 0.041146936365530976 0.008934887686311078 0.021293128662211756 -0.015141913489721241 -2.1594566975940257 3.993519036752362 -1.0192785502901454 -0.9383237130663918 3.7947902954062265 0.39463975266969203 -0.9009025325170983 -0.37605718581848135 -0.9458106951900297 0.6225514252770071 0.37844060581560374 -0.821986112543398 -0.26146196438508834 11.081374679227638 -0.8900809093356793 -0.02609934793638063 -0.9831417737203242 -3.4286574974641044 0.28314461690171483 -15.810062433074227 -0.2701836176176535 0.4613403750258448 0.5092105720788701 -14.569515847455504 65.49789951688544 3.4111070781358572 10.892487428115006 31.083381473912354 -2.4399139400680308 93.00254923328399 15.095286687770173 -0.3098494255301166 -4.951850041830345 4.570682581342115 -0.16506203513100698 -1.587401800081745 0.026339387556948545 0.04644690556703826 -56.234251191556446 -0.01266485494292981 -0.03803642671301878 -56.269824033493805 -38.74957068502247 0.04453075520588336 0.025574724878870823 0.01046158836719488 0.014625994181637481 0.015431354404553378 -0.02955771531749238 0.03376726193722833 0.039722839792432615 -36.70055892577293 -0.01067676809176726 0.025546420731386407 0.04401176374084588 0.002858907263363349 -0.023880284610090317 -0.036650883591423225 0.03716235750556388 -0.01521882104691469 -19.765625170842277 -0.0073305942321954245 0.012685923247592603 -0.014186204364410844 0.022022786409868045 0.027234964779973485 0.02489816821729964 0.033389083816333015 0.021052267972704587 24.035537885784617 -0.007154375621674264 0.022446580570295256 28.901603414986937 0.01639882630480217 -0.015105215274080822 28.871856526510467 0.03964546632545106 0.02248629482711711 1.2489707960757161 0.7331772816760878 12.754028368248532 -60.6674945343288 26.731807635607936 -19.487483594902322 -4.595176533068257 5.1162738437197595 -77.19213925362826 -13.786555881509097 4.282089498745727 -2.326013150236007 -0.4746230651697701 0.03807873783560248 -8.103269028221124 0.01277821085493975 -0.03997146178358284 44.59863059988389 -0.00548502225178422 -0.014534451028943886 44.52424468388351 12.471312380235894 -0.014544319410003463 -0.00941684850631966 0.007536986998814731 0.03154664495276461 -0.016041876484449206 0.024719839049698742 -0.02096939779181265 0.00959903525668508 11.110500198166559 -0.015539396501184828 -0.0034595621313058835 0.032026812266032885 -0.0011653870619395723 -0.010881726900617285 -0.044520669653410415 -0.002077828417849536 -0.029184693387900387 4.8081780574224275 -0.00804065328303036 -0.009240613853687353 -0.03345988547111003 -0.007353471901108807 -0.016292322987863945 -0.037485470857828475 0.04093108597446993 0.01377302412804627 -5.604190533435735 0.027595691935527786 -0.013005722348535273 -6.767523587010376 -0.01673957888908018 -0.031162823053903863 -6.681017840063039 -0.006740372755766547 0.02985616949163055 0.015959925787891474 -0.027844935410916444 -0.023845021588296867 8.0464024068293 3.5381320581657474 -19.172721187816965 0.023720884498931637 10.432873673779937 0.028872336691707013 -5.577571028457104 -15.671256806639903 3.184228677771782 -0.01208597815274271 -0.045845663954549434 0.0256179139153754 0.0016371442094022222 4.7243746697479105 0.04157746035139585 12.46790207804847 -8.21706482257881 6.867666801771559 -0.009891914732376057 46.42158188827474 -0.012265744170847845 -4.320001766797404 -14.733787924550878 -3.8068368638053367 0.046099019063242805 0.007290384973994862 0.009456407289769389 0.03274300341353295 -10.793203555323954 0.028858089607950867 
0.01439180038688086 0.031364015684470586 0.010869218448669168 -0.0015514165566616208 -0.005383545340695178 -0.024895473138061144 -2.171653053499464 4.071972198994162 -0.9875855462077666 -0.8731071240508631 3.8675840803533235 0.383977038966704 -0.8683479560285527 -0.3494043116163878 -0.9541248508440892 0.5948613450769008 0.35521983213831365 -0.816682275074169 -0.36520523106855507 11.049274688657318 -0.8056630025250574 -0.07389777208864277 -1.0104249865252213 -3.3003218372692844 0.2703762653393495 -15.785707435212245 -0.21046349969549666 0.7390138064758409 0.36054364335005784 -14.357911305937343 64.86321602567176 4.613449548014736 12.01853441838789 31.905446374830504 -2.425621949063429 92.56131666375721 16.09878575251513 -0.3158481352595935 -5.514489368329968 4.559909341785491 -0.1662505522412605 -1.5564807342945899 0.027417957006897958 0.04880650583558282 -56.2494320266588 -0.03142100644568446 -0.003809456807941497 -56.207611574752065 -38.741367603759066 0.000935972736756527 -0.029241725214723586 -0.022279112444831224 -0.0010547358235566298 -0.03327203896422926 0.03095509700747231 0.006054648795040412 0.016083238060609198 -36.73920731759062 0.021443652332070497 0.018005437169094238 0.01524445548705723 0.009069930957895099 -0.004079446180454898 0.027240409504517782 0.011407605835919852 -0.04103289568557686 -19.752123573454835 -0.044201930877682254 0.015754605112906966 0.025223507360651314 0.0002024253007193491 0.039295609228526304 -0.037940845183257924 -0.02092881394158938 0.014091846675972857 24.088407294968228 0.041224781614234686 0.012910607251443072 28.883877297352754 0.014124217263232212 0.012065500404515433 28.86981126663046 -0.00460578342419958 0.0078072752687551985 1.2107448727200356 0.7179184813497962 12.630920934114323 -59.484529146568114 27.219562568283997 -21.320513212656582 -2.621073786796065 3.8672219891349595 -78.1870022004221 -13.97144698285756 4.6861875870528795 -2.7608692849240044 -0.4246326587847725 0.06889590978195245 -8.153333504138132 0.045659417596970515 -0.013449505591195413 44.56937348158733 0.04622934508648951 0.028221486776321823 44.59095281921283 12.426430265222175 0.04519759373375009 0.027863453951081835 -0.023134455220443894 0.04265290296553536 0.02719486308141734 -0.04675446919597119 0.040877705615070606 0.0064614570194017 11.127677313618307 -0.014689197904467767 0.04559426607196756 0.03813006580668342 -0.01608111623015367 0.015715484744325464 -0.006458632926512201 0.04058482198415446 0.017503277772381625 4.7434982780928445 -0.008078159543320964 -0.026658799921832555 0.016032021834866628 -0.013438066183510742 0.007555334221272833 -0.040291082050092075 -0.01932434085167047 0.012058730096686756 -5.55626585188421 0.02624362406244503 -0.009939612395450612 -6.706831508713384 -0.027735608946055184 0.01967110342615671 -6.765707365791163 -0.04450816901941497 -0.0020075647202314525 0.01687104379338303 -0.04405586620266675 -0.04446332078516342 8.023012412800005 3.528640695115657 -19.17242857574671 -0.018110333668804435 10.4066905784315 0.029120949517583025 -5.628307359305771 -15.70154738345326 3.191694648926764 0.027050314455798925 0.015408788713914089 -0.005753307999565116 0.015060239430511409 4.679117676533724 0.004643090000646578 12.477387820658189 -8.24867469397055 6.90483657654706 -0.006623775324562883 46.36648025897381 -0.008481326853595764 -4.281586024503255 -14.728361452151105 -3.794500337947725 0.009655538822947552 0.014432227759266246 -0.048670630431946096 0.031813779204329325 -10.78510955170922 -0.0032553356226813455 
0.00738593461451918 -0.03185003360423244 0.009758830691371687 -0.009764502837339092 -0.007467625811167517 0.004891216457786358 -2.244917202890705 4.189440210308213 -0.9400079168782219 -0.9406558610181434 3.8373757440428005 0.3808895441838149 -0.865232743850118 -0.3061600070255873 -1.074593504381446 0.6141135212533532 0.38984036175108105 -0.8314510119532474 -0.39124764896875786 10.970594745056038 -0.8532263963249896 -0.08339247261861102 -1.0012101180545374 -3.383167796325867 0.2549172628925725 -15.865611879183497 -0.23251101433548274 1.092391375379573 0.25635110443840203 -14.222322895494482 64.09128542967245 4.968952650226828 12.895204793698245 32.81337845153812 -1.9723139651477417 92.45143506796074 16.656518222053034 -0.2687689943495646 -6.055405396899509 4.5633617524036545 -0.10299948167564316 -1.5487285875100512 0.037317104873430915 -0.017563776260476012 -56.21411444759504 -0.043764051886067544 -0.013692131989238186 -56.226474348426066 -38.77542310103335 -0.006345487948865844 0.01331274825532453 -0.039460543911369925 -0.02397504187231174 0.0423238063098408 0.011079709575954534 -0.0029852150043030937 0.03412905812377292 -36.706613842386325 -0.03030140432474567 0.033746303883238266 0.018303184850837644 0.019442110163908614 -0.030601300526679646 0.012122203685386995 0.022867162608787083 0.04560043035566256 -19.732320978075144 -0.01503796232477237 0.0050097686795608455 0.014908048594213734 -0.03079517234948205 0.029098085504352594 0.01945353167452853 -0.04642170088629859 -0.024164634956287925 24.054715544365347 0.03012632897805634 -0.036921928847990435 28.906637879701663 0.02071699703951577 -0.0069784345447575094 28.880088123595936 -0.00954095222982202 -0.03220991277357638 0.9713988038061842 0.6645980524914745 12.463284745427618 -58.40923354976868 27.78638244428432 -22.60034673235075 -0.4672371401185772 2.8874191691165016 -78.86028473502311 -13.914859653102265 5.017724816986238 -3.1287039146262576 -0.4486403978196442 0.06361506558656305 -8.099873918014879 0.03847545293254689 0.049519497568322905 44.5686053754279 -0.031622209900547614 -0.017636998658050834 44.54506850018069 12.43369319741225 -0.024924630850312223 -0.04124011190938308 -0.010121614043764361 -0.03945578400069168 -0.0320442359171876 0.008916314014565283 -0.04154036763268715 -0.0035656003180750654 11.101772933972503 0.00715550260880665 -0.029799906608369685 0.002864935105217166 0.03719037802934908 -0.02631477682832309 -0.0018910088564672266 0.046191172573578416 0.03263164359830986 4.73619844192786 0.023981902538577845 -0.04897298860176542 -0.007483655306643894 -0.03239078863797345 0.04434680895199083 0.018979195504965664 -0.03369725989948232 0.023051389599099307 -5.6015085531269655 0.03266661737077091 -0.005060000289868517 -6.725852655990206 -0.03339399055868165 -0.0031747107645865515 -6.697399455783346 0.001719725444103645 -0.02131269383608072 -0.0020322184674733076 -0.026609384580395325 -0.02323498987156258 8.053283903414691 3.4969563867074864 -19.250211487975935 0.013991690150134644 10.345582731023047 0.056669292727579965 -5.640238162310065 -15.617107327184133 3.15182327209594 0.00546426296528264 0.01147388846360369 0.006661890178834493 -0.010293531762985406 4.703278587380028 -0.045572361388483355 12.467105946205137 -8.223720289345376 6.913730047929497 -0.03796021493221863 46.39455464219356 0.034295823062480066 -4.289669115761465 -14.754872960892367 -3.870181412383946 -0.042704388762165424 0.03258310020615183 -0.0013118889930121413 -0.02416737099316222 -10.712859742672372 0.04549363641011923 
